<mxfile host="app.diagrams.net" agent="Mozilla/5.0 (Macintosh; Intel Mac OS X 10_15_7) AppleWebKit/537.36 (KHTML, like Gecko) Chrome/132.0.0.0 Safari/537.36" version="26.0.11">
  <diagram name="第 1 页" id="-q7BKK39GoYxuz5UdeIu">
    <mxGraphModel dx="516" dy="341" grid="1" gridSize="10" guides="1" tooltips="1" connect="1" arrows="1" fold="1" page="1" pageScale="1" pageWidth="827" pageHeight="1169" math="0" shadow="0">
      <root>
        <mxCell id="0" />
        <mxCell id="1" parent="0" />
        <mxCell id="yErZwPFzvoCLdsMrNJiB-1" value="&lt;span style=&quot;color: rgb(0, 0, 0);&quot;&gt;Consistency&lt;/span&gt;" style="ellipse;whiteSpace=wrap;html=1;aspect=fixed;opacity=50;fillColor=#008a00;strokeColor=#005700;fontColor=#ffffff;fontFamily=Times New Roman;" vertex="1" parent="1">
          <mxGeometry x="320" y="198" width="120" height="120" as="geometry" />
        </mxCell>
        <mxCell id="yErZwPFzvoCLdsMrNJiB-2" value="&lt;span style=&quot;&quot;&gt;Availability&lt;/span&gt;&lt;span style=&quot;text-wrap-mode: nowrap; color: rgba(0, 0, 0, 0); font-size: 0px; text-align: start;&quot;&gt;%3CmxGraphModel%3E%3Croot%3E%3CmxCell%20id%3D%220%22%2F%3E%3CmxCell%20id%3D%221%22%20parent%3D%220%22%2F%3E%3CmxCell%20id%3D%222%22%20value%3D%22Consistency%22%20style%3D%22text%3Bhtml%3D1%3Balign%3Dcenter%3BverticalAlign%3Dmiddle%3BwhiteSpace%3Dwrap%3Brounded%3D0%3B%22%20vertex%3D%221%22%20parent%3D%221%22%3E%3CmxGeometry%20x%3D%22365%22%20y%3D%2220%22%20width%3D%2260%22%20height%3D%2230%22%20as%3D%22geometry%22%2F%3E%3C%2FmxCell%3E%3C%2Froot%3E%3C%2FmxGraphModel%3E&lt;/span&gt;" style="ellipse;whiteSpace=wrap;html=1;aspect=fixed;opacity=50;align=center;verticalAlign=middle;fontFamily=Times New Roman;fontSize=12;labelBackgroundColor=none;fillColor=#b1ddf0;strokeColor=#10739e;" vertex="1" parent="1">
          <mxGeometry x="270" y="290" width="120" height="120" as="geometry" />
        </mxCell>
        <mxCell id="yErZwPFzvoCLdsMrNJiB-3" value="&lt;span style=&quot;color: rgb(0, 0, 0);&quot;&gt;Partition&lt;/span&gt;&lt;div style=&quot;color: rgb(0, 0, 0);&quot;&gt;Tolerance&lt;/div&gt;" style="ellipse;whiteSpace=wrap;html=1;aspect=fixed;opacity=50;fillColor=#e51400;strokeColor=#B20000;fontColor=#ffffff;labelBackgroundColor=none;fontFamily=Times New Roman;" vertex="1" parent="1">
          <mxGeometry x="371" y="290" width="120" height="120" as="geometry" />
        </mxCell>
        <mxCell id="yErZwPFzvoCLdsMrNJiB-11" value="CA" style="text;html=1;align=center;verticalAlign=middle;whiteSpace=wrap;rounded=0;fontSize=10;fontFamily=Times New Roman;" vertex="1" parent="1">
          <mxGeometry x="325" y="289" width="60" height="30" as="geometry" />
        </mxCell>
        <mxCell id="yErZwPFzvoCLdsMrNJiB-12" value="AP" style="text;html=1;align=center;verticalAlign=middle;whiteSpace=wrap;rounded=0;fontSize=10;fontFamily=Times New Roman;" vertex="1" parent="1">
          <mxGeometry x="352" y="333" width="60" height="30" as="geometry" />
        </mxCell>
        <mxCell id="yErZwPFzvoCLdsMrNJiB-13" value="CP" style="text;html=1;align=center;verticalAlign=middle;whiteSpace=wrap;rounded=0;fontSize=10;fontFamily=Times New Roman;" vertex="1" parent="1">
          <mxGeometry x="379" y="288" width="60" height="30" as="geometry" />
        </mxCell>
      </root>
    </mxGraphModel>
  </diagram>
</mxfile>
